<?xml version="1.0" encoding="iso-8859-1"?>
<!-- Generator: Adobe Illustrator 19.0.0, SVG Export Plug-In . SVG Version: 6.00 Build 0)  -->
<svg version="1.1" id="Capa_1" xmlns="http://www.w3.org/2000/svg" xmlns:xlink="http://www.w3.org/1999/xlink" x="0px" y="0px"
	 viewBox="0 0 480 480" style="enable-background:new 0 0 480 480;" xml:space="preserve">
<path style="fill:#CDCDCD;" d="M240,40H56c-17.673,0-32,14.327-32,32v80c0,17.673,14.327,32,32,32h144l40,40v-40
	c17.673,0,32-14.327,32-32V72C272,54.327,257.673,40,240,40z"/>
<path style="fill:#787D82;" d="M160,400c-4.418-0.001-7.999-3.583-7.998-8.002c0-2.121,0.843-4.154,2.342-5.654L164.688,376
	l-10.344-10.344c-3.123-3.124-3.123-8.188,0-11.312L164.688,344l-10.344-10.344c-3.123-3.124-3.123-8.188,0-11.312l6.584-6.592
	c-0.611-1.156-0.93-2.444-0.928-3.752v-24c0-4.418,3.582-8,8-8s8,3.582,8,8v16c4.418,0.001,7.999,3.583,7.998,8.002
	c0,2.121-0.843,4.154-2.342,5.654L171.312,328l10.344,10.344c3.123,3.124,3.123,8.188,0,11.312L171.312,360l10.344,10.344
	c3.123,3.124,3.123,8.188,0,11.312l-16,16C164.156,399.156,162.122,400,160,400L160,400z"/>
<path style="fill:#3B869E;" d="M320,368h-14.112c-9.097,0.028-17.42-5.115-21.464-13.264l-10.736-21.472
	c-4.046-8.147-12.367-13.29-21.464-13.264H8c-4.418,0-8-3.582-8-8s3.582-8,8-8h244.224c15.164-0.049,29.038,8.526,35.776,22.112
	l10.736,21.464c1.344,2.719,4.119,4.436,7.152,4.424H320c4.418,0,8-3.582,8-8v-32c0-4.418,3.582-8,8-8s8,3.582,8,8v32
	C344,357.255,333.255,368,320,368L320,368z"/>
<g>
	<path style="fill:#FDC9A6;" d="M472,168h-97.48c-9.227,0.001-18.004,3.984-24.08,10.928L321.4,212.12
		c-9.202,10.488-8.16,26.45,2.328,35.653c0.285,0.25,0.576,0.494,0.872,0.731c10.747,8.589,26.39,7.007,35.2-3.56L384,216h88
		L472,168z"/>
	<path style="fill:#FDC9A6;" d="M472,264h-40c-13.255,0-24-10.745-24-24c0-13.255,10.745-24,24-24h40V264z"/>
</g>
<path style="fill:#F9D7C0;" d="M432,232h16v16h-16V232z"/>
<g>
	<path style="fill:#69B0BB;" d="M360,288h-48l-16-32h80L360,288z"/>
	<path style="fill:#69B0BB;" d="M312,280h48v40h-48V280z"/>
</g>
<g>
	<path style="fill:#F9E0A0;" d="M312,144h16v16h-16V144z"/>
	<path style="fill:#F9E0A0;" d="M312,112h16v16h-16V112z"/>
	<path style="fill:#F9E0A0;" d="M312,80h16v16h-16V80z"/>
	<path style="fill:#F9E0A0;" d="M256,272h16v16h-16V272z"/>
	<path style="fill:#F9E0A0;" d="M224,272h16v16h-16V272z"/>
	<path style="fill:#F9E0A0;" d="M192,272h16v16h-16V272z"/>
</g>
<g>
	<g>
		<path id="SVGCleanerId_0" style="fill:#A8A8A8;" d="M48,64h16v16H48V64z"/>
	</g>
	<g>
		<path id="SVGCleanerId_1" style="fill:#A8A8A8;" d="M48,96h16v16H48V96z"/>
	</g>
	<g>
		<path id="SVGCleanerId_2" style="fill:#A8A8A8;" d="M136,128h16v16h-16V128z"/>
	</g>
	<g>
		<path id="SVGCleanerId_3" style="fill:#A8A8A8;" d="M168,128h16v16h-16V128z"/>
	</g>
	<g>
		<path id="SVGCleanerId_4" style="fill:#A8A8A8;" d="M80,96h16v16H80V96z"/>
	</g>
	<g>
		<path id="SVGCleanerId_5" style="fill:#A8A8A8;" d="M200,96h16v16h-16V96z"/>
	</g>
	<g>
		<path id="SVGCleanerId_6" style="fill:#A8A8A8;" d="M232,96h16v16h-16V96z"/>
	</g>
	<g>
		<path id="SVGCleanerId_7" style="fill:#A8A8A8;" d="M160,64h16v16h-16V64z"/>
	</g>
</g>
<path style="fill:#B9B9B9;" d="M8,392h328v48H8V392z"/>
<g>
	<path style="fill:#CDCDCD;" d="M8,392h328v24H8V392z"/>
	<path style="fill:#CDCDCD;" d="M112,400H48v-96c0-17.673,14.327-32,32-32s32,14.327,32,32V400z"/>
</g>
<circle style="fill:#3B869E;" cx="80" cy="300" r="8"/>
<path style="fill:#CDCDCD;" d="M224,344h32v64h-32V344z"/>
<g>
	<path style="fill:#A8A8A8;" d="M80,64h64v16H80V64z"/>
	<path style="fill:#A8A8A8;" d="M112,96h72v16h-72V96z"/>
	<path style="fill:#A8A8A8;" d="M48,128h72v16H48V128z"/>
	<path style="fill:#A8A8A8;" d="M192,64h56v16h-56V64z"/>
	<path style="fill:#A8A8A8;" d="M200,128h48v16h-48V128z"/>
</g>
<path d="M374.52,160c-11.535,0.001-22.509,4.982-30.104,13.664l-29.04,33.184c-10.207,11.566-11.025,28.665-1.968,41.152H296
	c-4.418-0.024-8.02,3.538-8.044,7.956c-0.007,1.256,0.282,2.496,0.844,3.62l15.2,30.312V320c0,4.418,3.582,8,8,8h16v16
	c0,4.418-3.582,8-8,8h-14.112c-3.033,0.012-5.808-1.705-7.152-4.424L288,326.112c-6.738-13.586-20.612-22.161-35.776-22.112H176v-16
	c0-4.418-3.582-8-8-8s-8,3.582-8,8v16h-40c0-22.091-17.909-40-40-40s-40,17.909-40,40H8c-4.418,0-8,3.582-8,8s3.582,8,8,8h32v64H8
	c-4.418,0-8,3.582-8,8v48c0,4.418,3.582,8,8,8h328c4.418,0,8-3.582,8-8v-48c0-4.418-3.582-8-8-8h-72v-40c0-4.418-3.582-8-8-8h-32
	c-4.418,0-8,3.582-8,8v40h-36.688l2.344-2.344c3.123-3.124,3.123-8.188,0-11.312L171.312,360l10.344-10.344
	c3.123-3.124,3.123-8.188,0-11.312L171.312,328l8-8h72.912c9.097-0.026,17.418,5.117,21.464,13.264l10.736,21.472
	c4.044,8.149,12.367,13.292,21.464,13.264H320c13.255,0,24-10.745,24-24v-16h16c4.418,0,8-3.582,8-8v-30.112l15.2-30.312
	c1.975-3.952,0.372-8.757-3.58-10.732c-1.124-0.562-2.364-0.851-3.62-0.844h-8.248l20-24h16.696c-2.879,4.843-4.415,10.366-4.448,16
	c0,17.673,14.327,32,32,32h48V160L374.52,160z M56,304c0-13.255,10.745-24,24-24s24,10.745,24,24v80H56V304z M328,432H16v-32h312
	V432z M232,352h16v32h-16V352z M154.344,333.656L164.688,344l-10.344,10.344c-3.123,3.124-3.123,8.188,0,11.312L164.688,376l-8,8
	H120v-64h36.688l-2.344,2.344C151.221,325.468,151.221,330.532,154.344,333.656z M363.056,264l-8,16h-38.112l-8-16H363.056z
	 M352,312h-32v-16h32V312z M464,256h-32c-8.837,0-16-7.163-16-16c0-8.837,7.163-16,16-16h32V256z M432,208h-51.752l-26.528,31.84
	c-5.982,7.094-16.479,8.245-23.856,2.616l-0.232-0.2c-7.451-5.95-8.667-16.813-2.717-24.263c0.165-0.207,0.335-0.41,0.509-0.609
	l29.04-33.192c4.557-5.205,11.138-8.191,18.056-8.192H464v32L432,208z"/>
<path d="M432,232h16v16h-16V232z"/>
<path d="M80,292c-4.418,0-8,3.582-8,8s3.582,8,8,8s8-3.582,8-8S84.418,292,80,292z"/>
<path d="M312,144h16v16h-16V144z"/>
<path d="M312,112h16v16h-16V112z"/>
<path d="M312,80h16v16h-16V80z"/>
<path d="M256,272h16v16h-16V272z"/>
<path d="M224,272h16v16h-16V272z"/>
<path d="M192,272h16v16h-16V272z"/>
<path id="SVGCleanerId_0_1_" d="M48,64h16v16H48V64z"/>
<path id="SVGCleanerId_1_1_" d="M48,96h16v16H48V96z"/>
<path id="SVGCleanerId_2_1_" d="M136,128h16v16h-16V128z"/>
<path id="SVGCleanerId_3_1_" d="M168,128h16v16h-16V128z"/>
<path id="SVGCleanerId_4_1_" d="M80,96h16v16H80V96z"/>
<path id="SVGCleanerId_5_1_" d="M200,96h16v16h-16V96z"/>
<path id="SVGCleanerId_6_1_" d="M232,96h16v16h-16V96z"/>
<path id="SVGCleanerId_7_1_" d="M160,64h16v16h-16V64z"/>
<path d="M80,64h64v16H80V64z"/>
<path d="M112,96h72v16h-72V96z"/>
<path d="M48,128h72v16H48V128z"/>
<path d="M192,64h56v16h-56V64z"/>
<path d="M200,128h48v16h-48V128z"/>
<path d="M56,192h140.688l37.656,37.656c1.5,1.5,3.534,2.344,5.656,2.344c1.052,0.003,2.093-0.203,3.064-0.608
	c2.989-1.239,4.937-4.157,4.936-7.392v-32.8c18.613-3.825,31.979-20.198,32-39.2V72c-0.026-22.08-17.92-39.974-40-40H56
	c-22.08,0.026-39.974,17.92-40,40v80C16.026,174.08,33.92,191.974,56,192z M32,72c0-13.255,10.745-24,24-24h184
	c13.255,0,24,10.745,24,24v80c0,13.255-10.745,24-24,24c-4.418,0-8,3.582-8,8v20.688l-26.344-26.344
	c-1.5-1.5-3.534-2.344-5.656-2.344H56c-13.255,0-24-10.745-24-24V72z"/>
<g>
</g>
<g>
</g>
<g>
</g>
<g>
</g>
<g>
</g>
<g>
</g>
<g>
</g>
<g>
</g>
<g>
</g>
<g>
</g>
<g>
</g>
<g>
</g>
<g>
</g>
<g>
</g>
<g>
</g>
</svg>
