<svg xmlns="http://www.w3.org/2000/svg" xmlns:xlink="http://www.w3.org/1999/xlink" version="1.1" x="0px" y="0px" viewBox="0 0 100 125" enable-background="new 0 0 100 100" xml:space="preserve"><g><path d="M17.078,76.239v17.309c0,0.096,0.01,0.192,0.029,0.287l0.043,0.143l0.04,0.129c0.075,0.179,0.184,0.339,0.319,0.473   l0.102,0.085l0.117,0.094l0.12,0.065l0.13,0.067l0.133,0.041l0.137,0.04c0.086,0.017,0.174,0.025,0.263,0.026L18.529,95h0.001   c0.096,0,0.191-0.01,0.286-0.029l0.144-0.044l0.127-0.039c0.09-0.038,0.175-0.083,0.254-0.137l27.267-18.432h34.803   c3.731,0,7.13-1.499,9.589-3.915C93.462,69.991,95,66.637,95,62.952V18.368c0.001-3.711-1.537-7.069-4-9.476   C88.539,6.482,85.139,5,81.413,5H18.529c-3.726-0.001-7.115,1.483-9.561,3.895C6.519,11.304,4.999,14.661,5,18.368v44.584   C5.004,69.841,10.292,75.521,17.078,76.239z M7.903,18.368c0.001-2.907,1.181-5.508,3.102-7.404   c1.923-1.892,4.573-3.059,7.524-3.06h62.884c2.951,0,5.619,1.169,7.556,3.064c1.936,1.897,3.126,4.498,3.127,7.4v44.584   c-0.001,2.87-1.191,5.475-3.129,7.38c-1.94,1.903-4.608,3.083-7.555,3.083H46.166c-0.097,0-0.194,0.01-0.289,0.029l-0.112,0.034   l-0.159,0.049c-0.089,0.037-0.174,0.083-0.253,0.136l-0.001,0l-25.371,17.15V74.867c0-0.802-0.65-1.452-1.452-1.452l-0.002,0   c-2.946-0.001-5.596-1.179-7.521-3.08c-1.923-1.904-3.103-4.509-3.104-7.384V18.368z"/><path d="M31.524,42.111h17.024v17.024c0,0.802,0.65,1.452,1.452,1.452c0.802,0,1.452-0.65,1.452-1.452V42.111h17.024   c0.802,0,1.452-0.65,1.452-1.452c0-0.802-0.65-1.452-1.452-1.452H51.452V22.183c0-0.802-0.65-1.452-1.452-1.452   c-0.802,0-1.452,0.65-1.452,1.452v17.024H31.524c-0.802,0-1.452,0.65-1.452,1.452C30.072,41.461,30.722,42.111,31.524,42.111z"/></g><text x="0" y="115" fill="#000000" font-size="5px" font-weight="bold" font-family="'Helvetica Neue', Helvetica, Arial-Unicode, Arial, Sans-serif">Created by Viktor Ostrovsky</text><text x="0" y="120" fill="#000000" font-size="5px" font-weight="bold" font-family="'Helvetica Neue', Helvetica, Arial-Unicode, Arial, Sans-serif">from the Noun Project</text></svg>