<svg xmlns:x="http://ns.adobe.com/Extensibility/1.0/" xmlns:i="http://ns.adobe.com/AdobeIllustrator/10.0/" xmlns:graph="http://ns.adobe.com/Graphs/1.0/" xmlns="http://www.w3.org/2000/svg" xmlns:xlink="http://www.w3.org/1999/xlink" version="1.1" x="0px" y="0px" viewBox="0 0 100 125" enable-background="new 0 0 100 100" xml:space="preserve"><metadata><sfw xmlns="http://ns.adobe.com/SaveForWeb/1.0/"><slices/><sliceSourceBounds width="1447.7" height="1447.2" x="1" y="-1448.3" bottomLeftOrigin="true"/></sfw></metadata><path d="M2.3,25.8c0-4.7,3.8-8.5,8.5-8.5H55c-0.8,1.6-1.3,3.4-1.3,5.4c0,3.2,1.3,6.3,3.5,8.6c2.3,2.3,5.3,3.5,8.6,3.5h1.5v1.5  c0,6.7,5.4,12.1,12.1,12.1c1.8,0,3.5-0.4,5-1.1v25.1c0,4.7-3.8,8.5-8.5,8.5H29.4L14.8,95.4c-0.8,0.8-2.1,0.2-2.1-0.9V80.8h-1.9  c-4.7,0-8.5-3.8-8.5-8.5V25.8z M92.9,17.8l-8.8,0V9.1c0-2.7-2.2-4.8-4.8-4.8c-2.7,0-4.8,2.2-4.8,4.8v8.8h-4h-4.8  c-2.7,0-4.8,2.2-4.8,4.8v0c0,2.7,2.2,4.8,4.8,4.8h4.8h4v4v4.8c0,2.7,2.2,4.8,4.8,4.8c2.7,0,4.8-2.2,4.8-4.8v-4.8v-4h8.8  c2.7,0,4.8-2.2,4.8-4.8S95.6,17.8,92.9,17.8z"/><text x="0" y="115" fill="#000000" font-size="5px" font-weight="bold" font-family="'Helvetica Neue', Helvetica, Arial-Unicode, Arial, Sans-serif">Created by Gregor Cresnar</text><text x="0" y="120" fill="#000000" font-size="5px" font-weight="bold" font-family="'Helvetica Neue', Helvetica, Arial-Unicode, Arial, Sans-serif">from the Noun Project</text></svg>