<svg xmlns="http://www.w3.org/2000/svg" xmlns:xlink="http://www.w3.org/1999/xlink" version="1.1" x="0px" y="0px" viewBox="0 0 100 125"><path d="M400,800 l600,0 l0,100 l-600,0 Z M250,388 c34,0,62,28,62,62 c0,35,-28,63,-62,63 c-35,0,-63,-28,-63,-63 c0,-34,28,-62,63,-62 Z M250,588 c34,0,62,28,62,62 c0,35,-28,63,-62,63 c-35,0,-63,-28,-63,-63 c0,-34,28,-62,63,-62 Z M250,788 c34,0,62,28,62,62 c0,35,-28,63,-62,63 c-35,0,-63,-28,-63,-63 c0,-34,28,-62,63,-62 Z M400,400 l600,0 l0,100 l-600,0 Z M400,600 l600,0 l0,100 l-600,0 Z M0,-50 l0,1000 c0,97,53,150,150,150 l900,0 c97,0,150,-53,150,-150 l0,-600 c0,-97,-53,-150,-150,-150 l-800,0 Z M0,-50 " fill="#000000" stroke="none" stroke-dasharray="none" stroke-linecap="inherit" stroke-linejoin="inherit" stroke-width="1" transform="matrix(0.0583333333333,0.0,0.0,-0.0583333333333,15.0,85.0)"/><text x="0" y="115" fill="#000000" font-size="5px" font-weight="bold" font-family="'Helvetica Neue', Helvetica, Arial-Unicode, Arial, Sans-serif">Created by Thomas Helbig</text><text x="0" y="120" fill="#000000" font-size="5px" font-weight="bold" font-family="'Helvetica Neue', Helvetica, Arial-Unicode, Arial, Sans-serif">from the Noun Project</text></svg>