<?xml version="1.0"?>
<svg xmlns="http://www.w3.org/2000/svg" xmlns:xlink="http://www.w3.org/1999/xlink" version="1.1" id="Capa_1" x="0px" y="0px" viewBox="0 0 60 60" style="enable-background:new 0 0 60 60;" xml:space="preserve" width="512px" height="512px" class=""><g><g>
	<path d="M47,32c-7.168,0-13,5.832-13,13s5.832,13,13,13s13-5.832,13-13S54.168,32,47,32z M47,56c-6.065,0-11-4.935-11-11   s4.935-11,11-11s11,4.935,11,11S53.065,56,47,56z" data-original="#000000" class="active-path" data-old_color="#5A5252" fill="#FFFEFE"/>
	<path d="M53,44h-5v-5c0-0.553-0.448-1-1-1s-1,0.447-1,1v5h-5c-0.552,0-1,0.447-1,1s0.448,1,1,1h5v5c0,0.553,0.448,1,1,1   s1-0.447,1-1v-5h5c0.552,0,1-0.447,1-1S53.552,44,53,44z" data-original="#000000" class="active-path" data-old_color="#5A5252" fill="#FFFEFE"/>
	<path d="M42,0H18C8.075,0,0,8.068,0,17.985v14c0,9.59,7.538,17.452,17,17.973v8.344C17,59.238,17.764,60,18.703,60   c0.449,0,0.873-0.177,1.195-0.498l1.876-1.877c2.967-2.967,6.547-5.132,10.493-6.388C31.452,49.319,31,47.212,31,45   c0-8.822,7.178-16,16-16c5.161,0,9.746,2.467,12.673,6.271C59.877,34.191,60,33.096,60,31.985v-14C60,8.068,51.925,0,42,0z" data-original="#000000" class="active-path" data-old_color="#5A5252" fill="#FFFEFE"/>
</g></g> </svg>
